<?xml version="1.0" encoding="UTF-8" standalone="no"?><!DOCTYPE svg PUBLIC "-//W3C//DTD SVG 1.1//EN" "http://www.w3.org/Graphics/SVG/1.1/DTD/svg11.dtd"><svg width="100%" height="100%" viewBox="0 0 180 425" version="1.1" xmlns="http://www.w3.org/2000/svg" xmlns:xlink="http://www.w3.org/1999/xlink" xml:space="preserve" xmlns:serif="http://www.serif.com/" style="fill-rule:evenodd;clip-rule:evenodd;stroke-linecap:round;stroke-linejoin:round;stroke-miterlimit:1.5;"><path d="M117.261,401.944l6.207,-18.647l-4.572,20.035l8.537,-18.034l-5.376,19.984l5.564,-6.916l-2.957,8.868l4.668,-7.407l1.459,6.919l2.44,-5.669l0.347,6.442" style="fill:none;stroke:#000;stroke-width:1px;"/><path d="M141.522,415.333c0.692,1.582 -52.909,-3.583 -35.431,-20.102" style="fill:none;stroke:#000;stroke-width:1px;"/><path d="M114.376,395.231c-1.255,-0.079 39.935,13.318 27.649,20.102" style="fill:none;stroke:#000;stroke-width:1px;"/><path d="M114.376,377.117l-0.028,19.226c-3.762,-1.519 -6.753,-1.195 -8.446,-0.935l0.189,-19.326c3.63,0.032 6.732,0.254 8.285,1.035Z" style="stroke:#000;stroke-width:1px;"/><path d="M103.983,377.08c0,0 6.513,-2.846 14.913,1.072" style="fill:none;stroke:#000;stroke-width:1px;"/><path d="M118.896,372.248c0,0 -9.234,-2.579 -18.744,0" style="fill:none;stroke:#000;stroke-width:1px;"/><path d="M99.393,269.602c0,0 -3.165,94.594 6.698,106.03" style="fill:none;stroke:#000;stroke-width:1px;"/><path d="M136.068,241.514c0,0 -8.238,106.399 -17.172,131.703" style="fill:none;stroke:#000;stroke-width:1px;"/><path d="M56.848,401.327l8.597,-19.467l-4.34,19.467l7.518,-17.705l-4.361,17.705l4.782,-7.749l-1.383,9.357l3.701,-6.196l-0.233,4.588l3.256,-2.047l-1.556,5.067" style="fill:none;stroke:#000;stroke-width:1px;"/><path d="M57.748,372.401c-0.056,1.996 -1.86,15.056 -1.866,18.773c-2.54,-1.323 -6.283,-2.392 -8.728,0.103c0.942,-6.461 1.598,-12.662 2.033,-18.572c2.049,-0.619 6.694,-0.904 8.561,-0.304Z" style="stroke:#000;stroke-width:1px;"/><path d="M47.943,373.217c0,0 3.201,-2.307 14.956,0" style="fill:none;stroke:#000;stroke-width:1px;"/><path d="M42.409,366c0,0 15.144,-0.45 21.853,1.723" style="fill:none;stroke:#000;stroke-width:1px;"/><path d="M45.711,243.506c0,0 -4.307,116.758 2.232,129.711" style="fill:none;stroke:#000;stroke-width:1px;"/><path d="M77.22,266.068c0,0 -7.043,95.1 -14.321,107.149" style="fill:none;stroke:#000;stroke-width:1px;"/><path d="M108.267,264.975c0,0 -17.936,4.713 -31.047,0.297" style="fill:none;stroke:#000;stroke-width:1px;"/><path d="M95.542,233.093c0,0 -68.115,33.647 -65.196,-20.026" style="fill:none;stroke:#000;stroke-width:1px;"/><path d="M64.262,99.451c-45.894,-1.667 -89.891,77.564 -17.698,123.497" style="fill:none;stroke:#000;stroke-width:1px;"/><path d="M102.012,103.646l-8.551,8.551l4.44,4.441l4.111,-12.992Z" style="fill:none;stroke:#000;stroke-width:1px;"/><path d="M46.564,160.152c1.206,0.933 7.731,8.28 28.144,6.777" style="fill:none;stroke:#000;stroke-width:1px;"/><path d="M59.533,139.481c0.079,0.027 -39.853,38.126 11.5,61.895" style="fill:none;stroke:#000;stroke-width:1px;"/><path d="M141.984,113.454c8.174,-0.383 40.594,64.325 0,96.542" style="fill:none;stroke:#000;stroke-width:1px;"/><path d="M110.314,198.509c-2.058,-0.119 17.576,8.229 31.67,4.987" style="fill:none;stroke:#000;stroke-width:1px;"/><path d="M146.373,164.371c0,0 7.409,30.083 -4.389,39.125" style="fill:none;stroke:#000;stroke-width:1px;"/><path d="M140.771,125.469c0,0 13.241,18.742 5.602,38.902" style="fill:none;stroke:#000;stroke-width:1px;"/><path d="M117.659,165.678c0,0 19.717,2.545 28.714,-1.307" style="fill:none;stroke:#000;stroke-width:1px;"/><path d="M116.002,128.06c0,0 16.97,2.41 24.769,-2.591" style="fill:none;stroke:#000;stroke-width:1px;"/><path d="M129.052,93.647c0,0 17.593,11.773 11.739,31.822" style="fill:none;stroke:#000;stroke-width:1px;"/><path d="M95.542,233.093c-2.579,1.209 54.253,42.221 46.063,-28.992" style="fill:none;stroke:#000;stroke-width:1px;"/><path d="M100.463,102.17c7.349,-0.29 15.032,87.884 -4.921,130.923" style="fill:none;stroke:#000;stroke-width:1px;"/><path d="M100.463,99.623c0,0 -36.877,-8.38 -36.192,-0.287c0.525,6.205 37.22,3.047 37.562,2.169" style="fill:none;stroke:#000;stroke-width:1px;"/><path d="M100.917,99.52c0,0 23.419,-14.558 30.284,-9.27c3.919,3.018 -27.305,11.937 -29.227,11.214c-2.599,-1.404 -1.057,-1.944 -1.057,-1.944Z" style="fill:none;stroke:#000;stroke-width:1px;"/><path d="M120.453,67.8c0,0 8.746,-2.72 9.709,0c0.963,2.721 -3.547,4.108 -8.604,5.139" style="fill:none;stroke:#000;stroke-width:1px;"/><path d="M119.204,61.13c0,0 24.376,-2.794 1.249,6.67" style="fill:none;stroke:#000;stroke-width:1px;"/><path d="M118.128,57.053c0,0 4.73,24.168 4.649,31.773" style="fill:none;stroke:#000;stroke-width:1px;"/><path d="M63.45,71.727c0,0 7.324,12.053 5.636,23.23" style="fill:none;stroke:#000;stroke-width:1px;"/><path d="M63.45,71.727c0,0 -8.166,-5.499 -3.679,-7.853" style="fill:none;stroke:#000;stroke-width:1px;"/><path d="M56.815,59.472c-0.164,-0.039 -13.227,11.852 6.635,12.255" style="fill:none;stroke:#000;stroke-width:1px;"/><path d="M48.615,42.347c0,0 6.698,9.485 8.2,17.125" style="fill:none;stroke:#000;stroke-width:1px;"/><path d="M118.168,56.895l25.356,-20.434" style="fill:none;stroke:#000;stroke-width:1px;"/><path d="M97.623,49.691c0,0 40.553,-13.038 45.901,-13.23" style="fill:none;stroke:#000;stroke-width:1px;"/><path d="M107.171,39.589c12.437,-8.245 46.315,-68.501 -58.706,2.758" style="fill:none;stroke:#000;stroke-width:1px;"/><g id="Layer1"></g><path d="M92.978,15.169c-1.732,-3.091 -59.181,-20.674 -44.513,27.178" style="fill:none;stroke:#000;stroke-width:1px;"/><path d="M53.578,26.214c0,0 -2.305,-3.168 1.006,-12.322" style="fill:none;stroke:#000;stroke-width:1px;"/><path d="M70.443,13.892c0,0 -14.999,-3.887 -15.859,0" style="fill:none;stroke:#000;stroke-width:1px;"/><path d="M52.797,14.886c0,0 -1.807,-6.844 4.018,-2.722" style="fill:none;stroke:#000;stroke-width:1px;"/><path d="M97.623,30.356c0,0 7.091,4.441 12.876,13.931" style="fill:none;stroke:#000;stroke-width:1px;"/><path d="M55.421,389.878c0,0 32.766,15.815 25.74,21.629c-7.026,5.814 -50.672,-9.644 -35.03,-20.035" style="fill:none;stroke:#000;stroke-width:1px;"/><ellipse cx="86.834" cy="48.139" rx="1.784" ry="1.773" style="fill:none;stroke:#000;stroke-width:1px;"/><ellipse cx="103.366" cy="41.604" rx="1.784" ry="1.773" style="fill:none;stroke:#000;stroke-width:1px;"/><path d="M44.259,224.199c0,0 19.102,-19.717 19.378,-30.112" style="fill:none;stroke:#000;stroke-width:1px;"/></svg>